<svg width="404" height="98" viewBox="0 0 404 98" fill="none" xmlns="http://www.w3.org/2000/svg">
<path d="M34.7141 1.87277C16.4474 7.47277 4.04742 22.1394 0.580755 41.7394C-3.28591 64.4061 12.5808 88.6728 35.5141 95.4728C46.0474 98.5394 60.8474 97.3394 70.5808 92.6728C87.1141 84.8061 97.2474 69.4728 98.1808 51.4728C98.7141 38.5394 96.7141 31.2061 90.1808 21.3394C81.1141 7.73944 65.9141 -0.260565 49.1141 0.00610168C44.3141 0.00610168 37.7808 0.806104 34.7141 1.87277ZM65.7808 13.0728C74.0474 16.8061 80.1808 22.6728 84.7141 31.2061C87.6474 36.8061 88.3141 39.6061 88.3141 48.5394C88.3141 57.4728 87.6474 60.2728 84.7141 65.8728C72.3141 89.3394 42.8474 94.8061 23.3808 77.3394C14.1808 69.0728 10.3141 60.6728 10.3141 48.5394C10.3141 41.6061 11.1141 37.4728 13.5141 32.5394C17.3808 24.1394 28.0474 14.4061 36.5808 11.4728C44.8474 8.53943 56.9808 9.20611 65.7808 13.0728Z" fill="#717DE1"/>
<path d="M35.9142 28.6728C28.4475 31.4728 14.3142 44.4062 14.3142 48.5395C14.3142 52.9395 28.4475 65.6062 36.4475 68.4062C46.3142 71.7395 56.3142 71.2062 65.6475 66.6728C73.6475 62.9395 84.9809 52.4062 84.9809 48.6728C84.9809 45.3395 73.5142 34.0062 66.8475 30.5395C58.7142 26.4062 44.4475 25.6062 35.9142 28.6728ZM64.1809 40.4062C75.2475 46.9395 75.3809 49.6062 64.7142 56.2728C56.3142 61.4728 47.2475 62.2728 38.8475 58.6728C35.2475 57.0728 30.7142 54.1395 28.7142 52.2728L24.9809 48.6728L28.0475 45.4728C29.6475 43.6062 34.0475 40.6728 37.6475 38.9395C46.0475 34.9395 55.6475 35.4728 64.1809 40.4062Z" fill="#3B48B4"/>
<path d="M43.914 42.0061C41.914 43.3394 40.9807 45.3394 40.9807 48.5394C40.9807 56.2728 50.1807 60.0061 55.6474 54.5394C63.3807 46.8061 52.9807 35.6061 43.914 42.0061Z" fill="#717DE1"/>
<path d="M130.611 35.3171C122.878 40.7838 121.678 52.9171 128.345 59.8504C133.011 64.6504 139.411 65.8504 145.811 63.1838C150.211 61.3171 150.611 60.9171 148.878 59.1838C147.278 57.5838 146.211 57.4504 142.878 58.7838C132.345 62.6504 124.345 48.7838 132.478 40.6504C134.745 38.2504 144.345 37.7171 145.678 39.8504C146.345 40.9171 147.145 40.7838 148.478 39.7171C151.145 37.5838 150.878 36.5171 147.011 34.7838C142.211 32.5171 134.078 32.7838 130.611 35.3171Z" fill="white"/>
<path d="M157.678 41.4506C163.011 48.7839 163.678 50.5173 163.678 56.7839C163.678 62.9173 164.078 63.8506 166.345 63.8506C168.745 63.8506 169.011 62.9173 169.011 56.5173C169.011 49.8506 169.678 48.2506 174.345 41.9839C180.478 33.8506 180.611 33.1839 177.011 33.1839C175.411 33.1839 172.878 35.3173 170.611 38.5173C168.611 41.3173 166.745 43.7173 166.345 43.7173C165.945 43.7173 163.945 41.4506 161.945 38.5173C159.278 34.7839 157.145 33.1839 154.878 33.1839C151.811 33.1839 151.811 33.4506 157.678 41.4506Z" fill="white"/>
<path d="M183.678 48.5173V63.8506H191.678C197.945 63.8506 200.211 63.3173 202.345 61.1839C205.545 57.9839 205.811 52.9173 203.011 50.5173C201.278 49.0506 201.278 48.5173 203.011 46.1173C205.811 42.1173 205.545 40.2506 201.678 36.5173C199.011 33.7173 197.145 33.1839 191.011 33.1839H183.678V48.5173ZM198.478 40.6506C199.945 42.5173 199.811 43.0506 197.678 44.6506C196.345 45.7173 193.811 46.5173 192.078 46.5173C189.545 46.5173 189.011 45.8506 189.011 42.5173C189.011 39.0506 189.411 38.5173 192.878 38.5173C195.011 38.5173 197.545 39.4506 198.478 40.6506ZM199.278 53.9839C200.345 56.6506 198.478 58.2506 193.278 59.3173C189.145 60.1173 189.011 59.9839 189.011 55.9839C189.011 52.1173 189.278 51.8506 193.678 51.8506C196.745 51.8506 198.745 52.6506 199.278 53.9839Z" fill="white"/>
<path d="M210.345 48.5173V63.8506H221.145C230.611 63.8506 231.811 63.5839 231.411 61.4506C231.145 59.7173 229.411 59.0506 223.278 58.7839C216.211 58.3839 215.678 58.1173 215.678 55.1839C215.678 52.3839 216.345 51.9839 221.945 51.5839C226.745 51.3173 228.478 50.6506 228.745 48.7839C229.145 46.9173 228.211 46.5173 222.478 46.5173C215.811 46.5173 215.678 46.3839 215.678 42.5173C215.678 38.7839 215.811 38.6506 223.278 38.2506C229.411 37.9839 231.145 37.3173 231.411 35.4506C231.811 33.4506 230.611 33.1839 221.145 33.1839H210.345V48.5173Z" fill="white"/>
<path d="M235.678 36.1173C235.678 37.8506 236.611 40.3839 237.678 41.7173C240.211 45.0506 240.211 46.5173 237.678 46.5173C236.078 46.5173 235.678 48.3839 235.678 55.1839C235.678 62.9173 235.945 63.8506 238.345 63.8506C240.611 63.8506 241.011 62.9173 241.011 57.8506C241.011 50.1173 243.278 50.1173 248.078 57.8506C251.011 62.2506 252.745 63.8506 255.145 63.8506H258.478L254.345 57.7173L250.078 51.7173L253.545 48.5173C257.945 44.5173 257.945 40.6506 253.678 36.5173C251.011 33.7173 249.145 33.1839 243.011 33.1839C236.345 33.1839 235.678 33.4506 235.678 36.1173ZM250.345 39.8506C251.811 40.7839 251.945 41.7173 250.878 43.4506C248.611 47.0506 247.145 46.7839 244.611 42.5173C242.211 38.5173 242.211 38.5173 245.278 38.5173C247.011 38.5173 249.278 39.1839 250.345 39.8506Z" fill="white"/>
<path d="M269.278 34.9164C258.478 41.0498 259.411 57.9831 271.011 63.7164C274.078 65.1831 276.078 65.3164 280.211 64.1164C284.078 63.1831 285.945 63.1831 286.478 64.1164C288.478 67.4498 290.345 63.1831 290.345 55.0498V46.5164H285.011C280.611 46.5164 279.678 46.9164 279.678 49.1831C279.678 50.9164 280.611 51.8498 282.345 51.8498C285.945 51.8498 285.811 56.6498 282.211 58.6498C280.611 59.4498 277.411 59.7164 274.878 59.1831C266.611 57.7164 263.945 46.2498 270.345 40.5164C272.478 38.6498 274.345 38.2498 279.678 38.9164C287.011 39.8498 289.678 37.9831 285.678 34.9164C282.611 32.7831 273.278 32.7831 269.278 34.9164Z" fill="white"/>
<path d="M297.011 45.0499C297.011 55.8499 297.411 57.4499 300.211 60.7833C302.878 63.8499 304.478 64.5166 309.678 64.5166C314.878 64.5166 316.478 63.8499 319.145 60.7833C321.945 57.4499 322.345 55.8499 322.345 45.0499V33.1833H309.678H297.011V45.0499ZM317.011 46.7833C317.011 55.7166 314.745 59.8499 309.945 59.8499C304.611 59.8499 302.345 56.1166 302.345 46.9166V38.5166H309.678H317.011V46.7833Z" fill="white"/>
<path d="M332.611 46.2502C325.411 65.1836 325.678 63.8502 328.878 63.8502C330.478 63.8502 331.678 63.1836 331.678 62.5169C331.678 60.7836 343.278 60.7836 344.345 62.5169C345.545 64.5169 350.745 64.2502 349.945 62.1169C349.545 61.3169 347.011 54.7836 344.345 47.8502C341.678 40.9169 339.011 34.7836 338.478 34.2502C338.078 33.7169 335.411 39.0502 332.611 46.2502ZM340.345 52.1169C341.145 55.4502 340.878 55.8502 337.945 55.8502C334.745 55.8502 334.611 55.7169 336.078 51.1836C337.545 46.1169 339.011 46.3836 340.345 52.1169Z" fill="white"/>
<path d="M353.011 35.1839C353.011 36.5173 354.211 39.5839 355.811 41.9839L358.611 46.5173H355.811C353.278 46.5173 353.011 47.3173 353.011 55.1839C353.011 62.9173 353.278 63.8506 355.678 63.8506C357.945 63.8506 358.345 62.9173 358.345 57.8506C358.345 49.9839 360.878 49.9839 365.945 57.8506C368.611 62.2506 370.611 63.8506 372.878 63.8506C376.211 63.8506 376.211 63.8506 369.545 53.9839C368.078 51.8506 368.211 51.1839 371.145 48.9173C374.745 45.9839 375.411 40.5173 372.478 36.5173C371.145 34.6506 368.478 33.8506 361.811 33.4506C354.078 32.9173 353.011 33.1839 353.011 35.1839ZM368.745 41.9839C369.278 46.1173 365.545 47.0506 363.011 43.4506C360.078 39.3173 360.478 38.2506 364.745 38.7839C367.278 39.0506 368.478 39.9839 368.745 41.9839Z" fill="white"/>
<path d="M379.678 48.5173V63.8506H386.478C397.811 63.8506 403.545 59.0506 403.678 49.5839C403.678 38.5173 397.945 33.1839 385.811 33.1839H379.678V48.5173ZM395.678 41.1839C399.145 44.6506 399.278 53.1839 395.811 56.3839C394.478 57.5839 391.678 58.7839 389.545 58.9173L385.678 59.1839L385.278 48.7839L384.878 38.5173H389.011C391.278 38.5173 394.211 39.7173 395.678 41.1839Z" fill="white"/>
</svg>
